                                         
                                       ±±±                                      
                                     ±ÛÛÛÛÛ±                                    
                                    ±ÛÛÛÛÛÛÛ±                                   
                                   ±ÛÛÛÛÛÛÛÛÛ±                                  
                                  ±ÛÛÛÛÛÛÛÛÛÛÛ±                                 
                                 ±ÛÛÛÛÛÛÛÛÛÛÛÛÛ±                                
                                ±ÛÛÛÛÛÛÛÛÛÛÛÛÛÛÛ±                               
                               ±ÛÛÛÛÛÛÛ   ÛÛÛÛÛÛÛÛ                              
                              ÛÛÛÛÛÛÛÛ °°° ÛÛÛÛÛÛÛÛ                             
                             ÛÛÛÛÛÛÛÛ °°°°° ÛÛÛÛÛÛÛÛ                            
                            ÛÛÛÛÛÛÛÛ °°°°°°° ÛÛÛÛÛÛÛÛ                           
                           ÛÛÛÛÛÛÛÛ °°°°°°°°° ÛÛÛÛÛÛÛÛ                          
                          ÛÛÛÛÛÛÛÛ °°°ÛÛÛÛÛ°°° ÛÛÛÛÛÛÛÛ                         
                         ÛÛÛÛÛÛÛÛ °°°ÛÛÛÛÛ°°°°° ÛÛÛÛÛÛÛÛ                        
                        ÛÛÛÛÛÛÛÛ °°°°ÛÛÛÛ°°°°°°° ÛÛÛÛÛÛÛÛ                       
                       ÛÛÛÛÛÛÛÛ °°°°ÛÛÛÛ°°°°°°°°° ÛÛÛÛÛÛÛÛ                      
                      ÛÛÛÛÛÛÛÛ °°°°ÛÛÛÛ°°°°°°°°°°° ÛÛÛÛÛÛÛÛ                     
                     ÛÛÛÛÛÛÛÛ °°°°°ÛÛÛ°°°°°°°°°°°°° ÛÛÛÛÛÛÛÛ                    
                    ÛÛÛÛÛÛÛÛ °°°°°ÛÛÛÛ°°°°°°°°°°°°°° ÛÛÛÛÛÛÛÛ                   
                   ÛÛÛÛÛÛÛÛ °°°°°ÛÛÛÛ°°°°°°°°Û°°°°°°° ÛÛÛÛÛÛÛÛ                  
                  ÛÛÛÛÛÛÛÛ °°°°°°ÛÛÛ°°°°ÛÛÛÛÛÛ°°°°°°°° ÛÛÛÛÛÛÛÛ                 
                 ÛÛÛÛÛÛÛÛ °°°°°°ÛÛÛÛÛÛÛÛÛÛÛÛÛ°°°°°°°°°° ÛÛÛÛÛÛÛÛ                
                ÛÛÛÛÛÛÛÛ °°°°°°ÛÛÛÛÛÛÛÛ°°ÛÛÛ°°°°°°°°°°°° ÛÛÛÛÛÛÛÛ±              
               ÛÛÛÛÛÛÛÛ °°°°°°ÛÛÛÛ°°°°°°°ÛÛÛ°°°°°°°°°°°°° ÛÛÛÛÛÛÛÛ±             
              ÛÛÛÛÛÛÛÛ °°°°°°°°°°°°°°°°°ÛÛÛ°°°°°°°°°°°°°°° ÛÛÛÛÛÛÛÛ±            
             ÛÛÛÛÛÛÛÛ °°°°°°°°°°°°°°°°°°ÛÛ°°°°°°°°°°°°°°°°° ÛÛÛÛÛÛÛÛ±           
            ÛÛÛÛÛÛÛÛ °°°°°°°°°°°°°°°°°°ÛÛ°°°°°°°°°°°°°°°°°°° ÛÛÛÛÛÛÛÛ±          
           ÛÛÛÛÛÛÛÛ °°°°°°°°°°°°°°°°°Û°ÛÛ°°°°°°°°°°°°°°°°°°°° ÛÛÛÛÛÛÛÛ±         
          ÛÛÛÛÛÛÛÛ °°°°°°°°°°°°°°°°°°ÛÛÛÛÛ°°°°°°°°°°°°°°°°°°°° ÛÛÛÛÛÛÛÛ±        
         ÛÛÛÛÛÛÛÛ °°°°°°°°°°°°°°°°°°°ÛÛÛÛ°°°°°°°°°°°°°°°°°°°°°° ÛÛÛÛÛÛÛÛ±       
        ÛÛÛÛÛÛÛÛ °°°°°°°°°°°°°°°°°°°°ÛÛ°°°°°°°°°°°°°°°°°°°°°°°°° ÛÛÛÛÛÛÛÛ±      
       ÛÛÛÛÛÛÛÛÛ                                                 ÛÛÛÛÛÛÛÛÛ±     
      ÛÛÛÛÛÛÛÛÛÛÛÛÛÛÛÛÛÛÛÛÛÛÛÛÛÛÛÛÛÛÛÛÛÛÛÛÛÛÛÛÛÛÛÛÛÛÛÛÛÛÛÛÛÛÛÛÛÛÛÛÛÛÛÛÛÛÛÛÛ±    
    ±ÛÛÛÛÛÛÛÛÛÛÛÛÛÛÛÛÛÛÛÛÛÛÛÛÛÛÛÛÛÛÛÛÛÛÛÛÛÛÛÛÛÛÛÛÛÛÛÛÛÛÛÛÛÛÛÛÛÛÛÛÛÛÛÛÛÛÛÛÛÛÛ±   
    ÛÛÛÛÛÛÛÛÛÛÛÛÛÛÛÛÛÛÛÛÛÛÛÛÛÛÛÛÛÛÛÛÛÛÛÛÛÛÛÛÛÛÛÛÛÛÛÛÛÛÛÛÛÛÛÛÛÛÛÛÛÛÛÛÛÛÛÛÛÛÛÛÛ±  
    ÛÛÛÛÛÛÛÛÛÛÛÛÛÛÛÛÛÛÛÛÛÛÛÛÛÛÛÛÛÛÛÛÛÛÛÛÛÛÛÛÛÛÛÛÛÛÛÛÛÛÛÛÛÛÛÛÛÛÛÛÛÛÛÛÛÛÛÛÛÛÛÛÛ±  
     ±±±±±±±±±±±±±±±±±±±±±±±±±±±±±±±±±±±±±±±±±±±±±±±±±±±±±±±±±±±±±±±±±±±±±±±  



                                                  [size=4][color=yellow]                 Proudly Presents!!![/color] [/size]

[color=orange] [b] ----------------------------------------------------------------------------------------------------------- [/b] [/color]
  [color=cyan]                       Star.Trek.2009.720p.DXVA.AC3-Voltage[/color]  
[color=orange] [b] ----------------------------------------------------------------------------------------------------------- [/b] [/color]

[color=white] [b]
Source........::: BlueRay
Encoder.......::: BMB
Notes.........::: Okayyy my first DXVA rip now id like to thank firstly flawl3ss
and framstor for the help and especially spin, now this isnt like many other DXVA rips
you may see most are probably over 4 gig and unfortunately for me i live in a shit country :lol: 
and have the shittest upload speeds to i try to keep it under 4 gig and still looking watchable
which may also be useful for the other people with bandwidth or speed connection problems.. now as i was saying
this is my first DXVA i may not be a master at it yet but let me no what you think and enjoy :)[/b] [/color]


[color=orange] [b] ----------------------------------------------------------------------------------------------------------- [/b] [/color]
                                        [color=cyan]    [b]                               Video      [/b]                                                            [/color]                   
[color=orange] [b] ----------------------------------------------------------------------------------------------------------- [/b] [/color]

[color=white] [b]
General
Complete name                    : C:Star.Trek.2009.720p.DXVA.AC3-Voltage.mkv
Format                           : Matroska
File size                        : 2.69 GiB
Duration                         : 2h 6mn
Overall bit rate                 : 3 041 Kbps

Video
ID                               : 1
Format                           : AVC
Format/Info                      : Advanced Video Codec
Format profile                   : High@L4.1
Format settings, CABAC           : Yes
Format settings, ReFrames        : 11 frames
Muxing mode                      : Container profile=Unknown@4.1
Codec ID                         : V_MPEG4/ISO/AVC
Duration                         : 2h 6mn
Bit rate                         : 2 340 Kbps
Width                            : 1 280 pixels
Height                           : 528 pixels
Display aspect ratio             : 2.424
Frame rate                       : 23.976 fps
Resolution                       : 24 bits
Colorimetry                      : 4:2:0
Scan type                        : Progressive
Bits/(Pixel*Frame)               : 0.144
Stream size                      : 2.07 GiB (77%)
Language                         : English

[/b] [/color]


[color=orange] [b] ----------------------------------------------------------------------------------------------------------- [/b] [/color]

                                        [color=cyan]    [b]                               Audio     [/b]                                                            [/color]                   
[color=orange] [b] ----------------------------------------------------------------------------------------------------------- [/b] [/color]
[color=white] [b]
Audio
ID                               : 2
Format                           : AC-3
Format/Info                      : Audio Coding 3
Codec ID                         : A_AC3
Duration                         : 2h 6mn
Bit rate mode                    : Constant
Bit rate                         : 640 Kbps
Channel(s)                       : 6 channels
Channel positions                : Front: L C R, Surround: L R, LFE
Sampling rate                    : 48.0 KHz
Stream size                      : 581 MiB (21%)


[/b] [/color]


[color=orange] [b] ----------------------------------------------------------------------------------------------------------- [/b] [/color]
                                        [color=cyan]    [b]                               IMDB      [/b]                                                            [/color]                   
[color=orange] [b] ----------------------------------------------------------------------------------------------------------- [/b] [/color]
[color=white] [b]

IMDB LINK....:: http://www.imdb.com/title/tt0796366/

[/color][/b] 

[color=orange] [b] ----------------------------------------------------------------------------------------------------------- [/b] [/color]
                                        [color=cyan]    [b]                        Screens[/b]                                                            [/color]                   
[color=orange] [b] ----------------------------------------------------------------------------------------------------------- [/b] [/color] 
[color=orange] [b]
----------------------------------------------------------------------------------------------------------- [/b] [/color]
                                        [color=cyan]    [b]                         Greets   [/b]                                                            [/color]                   
[color=orange] [b] ----------------------------------------------------------------------------------------------------------- [/b] [/color] [color=white] [b]
IN NEED OF A CAMMER/LINE CAPPER/OR EVEN CAM AUDIO OR ANYTHING PLEASE PM BMB [/b] [/color]          